<svg xmlns="http://www.w3.org/2000/svg" width="137" height="36" fill="none" viewBox="0 0 137 36"><path fill="#1E8AC6" d="M47.5975 13.9285C50.0725 13.9285 51.31 15.3757 51.31 18.2701V23.5837C51.31 23.9869 51.1877 24.3037 50.9431 24.5341C50.7128 24.7645 50.3891 24.8797 49.9718 24.8797C49.5545 24.8797 49.2235 24.7645 48.9789 24.5341C48.7343 24.3037 48.612 23.9869 48.612 23.5837V18.2701C48.612 17.5069 48.4537 16.9525 48.1371 16.6069C47.8349 16.2469 47.3529 16.0669 46.6909 16.0669C45.9139 16.0669 45.2879 16.3117 44.8131 16.8013C44.3526 17.2909 44.1224 17.9461 44.1224 18.7669V23.5837C44.1224 23.9869 44.0001 24.3037 43.7554 24.5341C43.5108 24.7645 43.1799 24.8797 42.7626 24.8797C42.3453 24.8797 42.0143 24.7645 41.7697 24.5341C41.5394 24.3037 41.4243 23.9869 41.4243 23.5837V10.6669C41.4243 10.2925 41.5466 9.99006 41.7913 9.75966C42.0503 9.52926 42.3812 9.41406 42.7841 9.41406C43.187 9.41406 43.5108 9.52206 43.7554 9.73806C44.0001 9.95406 44.1224 10.2493 44.1224 10.6237V15.6565C44.4821 15.0949 44.957 14.6701 45.547 14.3821C46.1513 14.0797 46.8348 13.9285 47.5975 13.9285Z"/><path fill="#1E8AC6" d="M58.8637 24.9229C57.7845 24.9229 56.8348 24.6997 56.0146 24.2533C55.2088 23.8069 54.5828 23.1661 54.1367 22.3309C53.6907 21.4957 53.4676 20.5237 53.4676 19.4149C53.4676 18.3061 53.6907 17.3413 54.1367 16.5205C54.5828 15.6853 55.2088 15.0445 56.0146 14.5981C56.8348 14.1517 57.7845 13.9285 58.8637 13.9285C59.943 13.9285 60.8855 14.1517 61.6913 14.5981C62.5115 15.0445 63.1375 15.6853 63.5692 16.5205C64.0152 17.3413 64.2383 18.3061 64.2383 19.4149C64.2383 20.5237 64.0152 21.4957 63.5692 22.3309C63.1375 23.1661 62.5115 23.8069 61.6913 24.2533C60.8855 24.6997 59.943 24.9229 58.8637 24.9229ZM58.8422 22.8277C59.7199 22.8277 60.389 22.5397 60.8495 21.9637C61.31 21.3877 61.5402 20.5381 61.5402 19.4149C61.5402 18.3061 61.31 17.4637 60.8495 16.8877C60.389 16.2973 59.7271 16.0021 58.8637 16.0021C58.0004 16.0021 57.3312 16.2973 56.8564 16.8877C56.3959 17.4637 56.1657 18.3061 56.1657 19.4149C56.1657 20.5381 56.3959 21.3877 56.8564 21.9637C57.3169 22.5397 57.9788 22.8277 58.8422 22.8277Z"/><path fill="#1E8AC6" d="M72.5309 13.9285C73.4519 13.9285 74.2649 14.1517 74.97 14.5981C75.6751 15.0445 76.2219 15.6781 76.6104 16.4989C77.0133 17.3197 77.2148 18.2773 77.2148 19.3717C77.2148 20.4661 77.0133 21.4381 76.6104 22.2877C76.2219 23.1229 75.6679 23.7709 74.9484 24.2317C74.2433 24.6925 73.4375 24.9229 72.5309 24.9229C71.7683 24.9229 71.0848 24.7573 70.4804 24.4261C69.8904 24.0949 69.4372 23.6341 69.1206 23.0437V23.5837C69.1206 23.9725 68.9983 24.2821 68.7537 24.5125C68.509 24.7429 68.1853 24.8581 67.7824 24.8581C67.3794 24.8581 67.0557 24.7429 66.8111 24.5125C66.5808 24.2821 66.4657 23.9725 66.4657 23.5837V10.6669C66.4657 10.2925 66.588 9.99006 66.8326 9.75966C67.0917 9.52926 67.4226 9.41406 67.8255 9.41406C68.2284 9.41406 68.5522 9.52206 68.7968 9.73806C69.0415 9.95406 69.1638 10.2493 69.1638 10.6237V15.7213C69.4803 15.1453 69.9336 14.7061 70.5236 14.4037C71.1136 14.0869 71.7827 13.9285 72.5309 13.9285ZM71.8187 22.8277C72.6676 22.8277 73.3296 22.5253 73.8044 21.9205C74.2793 21.3157 74.5167 20.4661 74.5167 19.3717C74.5167 18.2917 74.2793 17.4637 73.8044 16.8877C73.344 16.3117 72.682 16.0237 71.8187 16.0237C70.9553 16.0237 70.2862 16.3189 69.8113 16.9093C69.3508 17.4853 69.1206 18.3205 69.1206 19.4149C69.1206 20.5093 69.3508 21.3517 69.8113 21.9421C70.2862 22.5325 70.9553 22.8277 71.8187 22.8277Z"/><path fill="#1E8AC6" d="M85.4943 13.9285C86.4152 13.9285 87.2282 14.1517 87.9333 14.5981C88.6384 15.0445 89.1852 15.6781 89.5738 16.4989C89.9767 17.3197 90.1781 18.2773 90.1781 19.3717C90.1781 20.4661 89.9767 21.4381 89.5738 22.2877C89.1852 23.1229 88.6312 23.7709 87.9118 24.2317C87.2067 24.6925 86.4008 24.9229 85.4943 24.9229C84.7316 24.9229 84.0481 24.7573 83.4438 24.4261C82.8538 24.0949 82.4005 23.6341 82.0839 23.0437V23.5837C82.0839 23.9725 81.9616 24.2821 81.717 24.5125C81.4724 24.7429 81.1486 24.8581 80.7457 24.8581C80.3428 24.8581 80.019 24.7429 79.7744 24.5125C79.5442 24.2821 79.429 23.9725 79.429 23.5837V10.6669C79.429 10.2925 79.5514 9.99006 79.796 9.75966C80.055 9.52926 80.386 9.41406 80.7889 9.41406C81.1918 9.41406 81.5155 9.52206 81.7602 9.73806C82.0048 9.95406 82.1271 10.2493 82.1271 10.6237V15.7213C82.4437 15.1453 82.897 14.7061 83.4869 14.4037C84.0769 14.0869 84.746 13.9285 85.4943 13.9285ZM84.782 22.8277C85.631 22.8277 86.2929 22.5253 86.7678 21.9205C87.2426 21.3157 87.4801 20.4661 87.4801 19.3717C87.4801 18.2917 87.2426 17.4637 86.7678 16.8877C86.3073 16.3117 85.6454 16.0237 84.782 16.0237C83.9186 16.0237 83.2495 16.3189 82.7746 16.9093C82.3142 17.4853 82.0839 18.3205 82.0839 19.4149C82.0839 20.5093 82.3142 21.3517 82.7746 21.9421C83.2495 22.5325 83.9186 22.8277 84.782 22.8277Z"/><path fill="#1E8AC6" d="M99.5841 14.7493C99.6992 14.4901 99.8503 14.3029 100.037 14.1877C100.239 14.0581 100.455 13.9933 100.685 13.9933C101.016 13.9933 101.311 14.1085 101.57 14.3389C101.843 14.5549 101.98 14.8285 101.98 15.1597C101.98 15.3181 101.937 15.4837 101.85 15.6565L95.9579 28.0117C95.7133 28.5013 95.3319 28.7461 94.8139 28.7461C94.4829 28.7461 94.188 28.6381 93.9289 28.4221C93.6843 28.2205 93.562 27.9613 93.562 27.6445C93.562 27.4861 93.6052 27.3061 93.6915 27.1045L95.1593 24.0157L91.1445 15.6565C91.0726 15.5125 91.0366 15.3469 91.0366 15.1597C91.0366 14.8285 91.1733 14.5477 91.4467 14.3173C91.7345 14.0869 92.0583 13.9717 92.418 13.9717C92.6626 13.9717 92.8857 14.0365 93.0871 14.1661C93.2886 14.2813 93.4469 14.4685 93.562 14.7277L96.5838 21.4021L99.5841 14.7493Z"/><path fill="#1E8AC6" d="M108.657 23.4757C109.161 23.5189 109.413 23.7493 109.413 24.1669C109.413 24.4117 109.319 24.5989 109.132 24.7285C108.96 24.8437 108.693 24.8869 108.334 24.8581L107.751 24.8149C106.6 24.7285 105.751 24.3829 105.204 23.7781C104.657 23.1733 104.384 22.2589 104.384 21.0349V15.6133H102.938C102.693 15.6133 102.499 15.5557 102.355 15.4405C102.225 15.3109 102.161 15.1453 102.161 14.9437C102.161 14.7277 102.225 14.5549 102.355 14.4253C102.499 14.2957 102.693 14.2309 102.938 14.2309H104.384V11.7901C104.384 11.5165 104.463 11.3077 104.621 11.1637C104.779 11.0053 104.995 10.9261 105.269 10.9261C105.528 10.9261 105.736 11.0053 105.895 11.1637C106.053 11.3077 106.132 11.5165 106.132 11.7901V14.2309H108.528C108.758 14.2309 108.938 14.2957 109.068 14.4253C109.211 14.5549 109.283 14.7277 109.283 14.9437C109.283 15.1453 109.211 15.3109 109.068 15.4405C108.938 15.5557 108.758 15.6133 108.528 15.6133H106.132V21.1213C106.132 21.9133 106.29 22.4893 106.607 22.8493C106.938 23.1949 107.427 23.3893 108.075 23.4325L108.657 23.4757Z"/><path fill="#1E8AC6" d="M115.432 13.9717C118.065 13.9717 119.382 15.3541 119.382 18.1189V23.9941C119.382 24.2533 119.302 24.4621 119.144 24.6205C119 24.7789 118.799 24.8581 118.54 24.8581C118.281 24.8581 118.072 24.7789 117.914 24.6205C117.756 24.4621 117.676 24.2533 117.676 23.9941V22.9573C117.403 23.5765 116.986 24.0589 116.425 24.4045C115.863 24.7357 115.216 24.9013 114.482 24.9013C113.806 24.9013 113.18 24.7645 112.604 24.4909C112.043 24.2173 111.597 23.8357 111.266 23.3461C110.935 22.8565 110.769 22.3165 110.769 21.7261C110.769 20.9341 110.971 20.3221 111.374 19.8901C111.777 19.4437 112.439 19.1269 113.36 18.9397C114.28 18.7381 115.561 18.6373 117.202 18.6373H117.676V17.9245C117.676 17.0605 117.497 16.4269 117.137 16.0237C116.791 15.6205 116.223 15.4189 115.432 15.4189C114.453 15.4189 113.46 15.6853 112.453 16.2181C112.064 16.4629 111.791 16.5853 111.633 16.5853C111.46 16.5853 111.316 16.5205 111.201 16.3909C111.086 16.2613 111.028 16.0957 111.028 15.8941C111.028 15.6925 111.086 15.5197 111.201 15.3757C111.331 15.2173 111.532 15.0589 111.805 14.9005C112.309 14.6125 112.877 14.3893 113.511 14.2309C114.158 14.0581 114.799 13.9717 115.432 13.9717ZM114.719 23.5189C115.583 23.5189 116.288 23.2309 116.835 22.6549C117.396 22.0645 117.676 21.3085 117.676 20.3869V19.7605H117.288C116.022 19.7605 115.058 19.8181 114.396 19.9333C113.734 20.0341 113.259 20.2141 112.971 20.4733C112.698 20.7181 112.561 21.0853 112.561 21.5749C112.561 22.1365 112.762 22.6045 113.165 22.9789C113.583 23.3389 114.101 23.5189 114.719 23.5189Z"/><path fill="#1E8AC6" d="M123.467 24.8581C123.208 24.8581 122.992 24.7861 122.819 24.6421C122.661 24.4837 122.582 24.2677 122.582 23.9941V10.2781C122.582 10.0045 122.661 9.79566 122.819 9.65166C122.992 9.49326 123.208 9.41406 123.467 9.41406C123.712 9.41406 123.913 9.49326 124.071 9.65166C124.244 9.79566 124.33 10.0045 124.33 10.2781V23.9941C124.33 24.2677 124.244 24.4837 124.071 24.6421C123.913 24.7861 123.712 24.8581 123.467 24.8581Z"/><path fill="#1E8AC6" d="M135.995 23.3677C136.225 23.5837 136.34 23.8141 136.34 24.0589C136.34 24.2749 136.261 24.4621 136.103 24.6205C135.959 24.7789 135.779 24.8581 135.563 24.8581C135.376 24.8581 135.182 24.7717 134.981 24.5989L129.347 19.7389V23.9941C129.347 24.2677 129.261 24.4837 129.088 24.6421C128.93 24.7861 128.728 24.8581 128.484 24.8581C128.225 24.8581 128.009 24.7861 127.836 24.6421C127.678 24.4837 127.599 24.2677 127.599 23.9941V10.2781C127.599 10.0045 127.678 9.79566 127.836 9.65166C128.009 9.49326 128.225 9.41406 128.484 9.41406C128.728 9.41406 128.93 9.49326 129.088 9.65166C129.261 9.79566 129.347 10.0045 129.347 10.2781V19.0477L134.506 14.3173C134.678 14.1445 134.873 14.0581 135.089 14.0581C135.304 14.0581 135.491 14.1373 135.65 14.2957C135.808 14.4541 135.887 14.6413 135.887 14.8573C135.887 15.1021 135.786 15.3181 135.585 15.5053L131.333 19.3069L135.995 23.3677Z"/><path fill="#1E8AC6" d="M6.91362 2.94161C8.94963 0.120558 16.2453 -0.157273 19.6387 0.056443C21.1275 0.961721 13.8679 7.47705 11.2656 12.0215C6.99241 19.4839 6.91362 25.542 9.77674 24.7406C12.6399 23.9392 17.7299 13.8411 24.0924 13.6808C30.4549 13.5205 25.3649 22.0157 24.0924 26.9846C22.8199 31.9535 24.0924 31.1521 25.3649 31.1521C27.0026 31.1521 38.5671 21.8554 31.4093 30.3506C24.2515 38.8458 19.6387 36.0645 18.6843 32.9152C17.7967 29.9865 21.4456 23.2416 20.4912 21.9593C19.5369 20.677 16.0375 24.2597 12.379 29.3889C8.72058 34.5181 2.03993 34.1411 0.392044 29.3889C-1.57473 23.7171 4.36862 6.46792 6.91362 2.94161Z"/></svg>