<svg width="104" height="104" viewBox="0 0 104 104" fill="none" xmlns="http://www.w3.org/2000/svg">
<g clip-path="url(#clip0)">
<path d="M65.4361 5.65455C63.6865 3.86406 61.5967 2.44134 59.2894 1.46999C56.9822 0.49865 54.504 -0.00172424 52.0006 -0.00172424C49.4972 -0.00172424 47.0191 0.49865 44.7118 1.46999C42.4046 2.44134 40.3147 3.86406 38.5651 5.65455L34.5221 9.80155L28.7371 9.73005C26.233 9.70041 23.7482 10.1718 21.4289 11.1164C19.1096 12.0611 17.0026 13.4599 15.2318 15.2307C13.461 17.0015 12.0621 19.1085 11.1175 21.4278C10.1729 23.7471 9.70149 26.2319 9.73113 28.736L9.79613 34.521L5.66213 38.564C3.87164 40.3137 2.44892 42.4035 1.47758 44.7108C0.506234 47.018 0.00585938 49.4962 0.00585938 51.9995C0.00585938 54.5029 0.506234 56.9811 1.47758 59.2883C2.44892 61.5956 3.87164 63.6854 5.66213 65.4351L9.80263 69.4781L9.73113 75.263C9.70149 77.7672 10.1729 80.2519 11.1175 82.5713C12.0621 84.8905 13.461 86.9976 15.2318 88.7684C17.0026 90.5392 19.1096 91.938 21.4289 92.8827C23.7482 93.8273 26.233 94.2987 28.7371 94.2691L34.5221 94.204L38.5651 98.338C40.3147 100.129 42.4046 101.551 44.7118 102.523C47.0191 103.494 49.4972 103.994 52.0006 103.994C54.504 103.994 56.9822 103.494 59.2894 102.523C61.5967 101.551 63.6865 100.129 65.4361 98.338L69.4791 94.1975L75.2641 94.2691C77.7682 94.2987 80.253 93.8273 82.5723 92.8827C84.8916 91.938 86.9986 90.5392 88.7694 88.7684C90.5402 86.9976 91.9391 84.8905 92.8838 82.5713C93.8284 80.2519 94.2998 77.7672 94.2701 75.263L94.2051 69.4781L98.3391 65.4351C100.13 63.6854 101.552 61.5956 102.524 59.2883C103.495 56.9811 103.995 54.5029 103.995 51.9995C103.995 49.4962 103.495 47.018 102.524 44.7108C101.552 42.4035 100.13 40.3137 98.3391 38.564L94.1986 34.521L94.2701 28.736C94.2998 26.2319 93.8284 23.7471 92.8838 21.4278C91.9391 19.1085 90.5402 17.0015 88.7694 15.2307C86.9986 13.4599 84.8916 12.0611 82.5723 11.1164C80.253 10.1718 77.7682 9.70041 75.2641 9.73005L69.4791 9.79504L65.4361 5.66105V5.65455ZM67.3016 44.5505L47.8016 64.0505C47.4997 64.3532 47.1411 64.5933 46.7462 64.7572C46.3514 64.921 45.9281 65.0054 45.5006 65.0054C45.0731 65.0054 44.6498 64.921 44.255 64.7572C43.8602 64.5933 43.5015 64.3532 43.1996 64.0505L33.4496 54.3005C33.1475 53.9984 32.9078 53.6396 32.7442 53.2448C32.5807 52.85 32.4965 52.4269 32.4965 51.9995C32.4965 51.5722 32.5807 51.1491 32.7442 50.7543C32.9078 50.3594 33.1475 50.0007 33.4496 49.6985C33.7518 49.3964 34.1105 49.1567 34.5053 48.9931C34.9001 48.8296 35.3233 48.7454 35.7506 48.7454C36.178 48.7454 36.6011 48.8296 36.9959 48.9931C37.3907 49.1567 37.7495 49.3964 38.0516 49.6985L45.5006 57.154L62.6996 39.9485C63.3099 39.3383 64.1376 38.9954 65.0006 38.9954C65.8637 38.9954 66.6914 39.3383 67.3016 39.9485C67.9119 40.5588 68.2547 41.3865 68.2547 42.2495C68.2547 43.1126 67.9119 43.9403 67.3016 44.5505Z" fill="#9589DE"/>
</g>
<defs>
<clipPath id="clip0">
<rect width="104" height="104" fill="white"/>
</clipPath>
</defs>
</svg>
