<svg xmlns="http://www.w3.org/2000/svg" width="24" height="24" fill="none" viewBox="0 0 24 24"><path fill="#1E8AC6" d="M18.585 10.36L12.585 4.24C12.425 4.08 12.225 4 12.005 4C11.785 4 11.585 4.08 11.425 4.24L5.42496 10.36C5.20496 10.58 5.12496 10.98 5.26496 11.26C5.38496 11.56 5.68496 11.78 6.00496 11.78H8.60496V19.18C8.60496 19.62 9.06496 19.98 9.50496 19.98H14.505C14.945 19.98 15.405 19.62 15.405 19.18V11.78H18.005C18.325 11.78 18.625 11.54 18.745 11.26C18.865 10.98 18.805 10.6 18.585 10.36ZM14.505 10.2C14.065 10.2 13.805 10.48 13.805 10.92V18.4H10.205V10.92C10.205 10.48 9.94496 10.2 9.50496 10.2H7.90496L12.005 6.02L16.105 10.2H14.505Z"/></svg>