<svg width="11" height="12" viewBox="0 0 11 12" fill="none" xmlns="http://www.w3.org/2000/svg">
<path d="M10.8779 7.70667V11.3333C10.8779 11.7067 10.6029 12 10.2529 12H0.75293C0.40293 12 0.12793 11.7067 0.12793 11.3333V7.70667C0.12793 7.33334 0.40293 7.04001 0.75293 7.04001C1.10293 7.04001 1.37793 7.33334 1.37793 7.70667V10.6667H9.62793V7.70667C9.62793 7.33334 9.90293 7.04001 10.2529 7.04001C10.6029 7.04001 10.8779 7.33334 10.8779 7.70667ZM3.45293 3.85332L4.87793 2.30667V8.08001C4.87793 8.45335 5.15293 8.74668 5.50293 8.74668C5.85293 8.74668 6.12793 8.45335 6.12793 8.08001V2.30667L7.55292 3.85332C7.67792 3.98665 7.84043 4.05332 8.00293 4.05332C8.16543 4.05332 8.31543 3.98667 8.44043 3.86667C8.69043 3.61333 8.69044 3.18665 8.45294 2.91999L5.96542 0.2C5.85292 0.0666667 5.69043 0 5.51543 0C5.35293 0 5.19043 0.0666667 5.06543 0.2L2.57793 2.91999C2.34043 3.18665 2.34042 3.6 2.59042 3.86667C2.81542 4.12 3.21543 4.10665 3.45293 3.85332Z" fill="#1E8AC6"/>
</svg>
