<svg xmlns="http://www.w3.org/2000/svg" width="15" height="16" fill="none" viewBox="0 0 15 16"><path fill="#000" d="M12.8779 9.70667V13.3333C12.8779 13.7067 12.6029 14 12.2529 14H2.75293C2.40293 14 2.12793 13.7067 2.12793 13.3333V9.70667C2.12793 9.33334 2.40293 9.04001 2.75293 9.04001C3.10293 9.04001 3.37793 9.33334 3.37793 9.70667V12.6667H11.6279V9.70667C11.6279 9.33334 11.9029 9.04001 12.2529 9.04001C12.6029 9.04001 12.8779 9.33334 12.8779 9.70667ZM5.45293 5.85332L6.87793 4.30667V10.08C6.87793 10.4533 7.15293 10.7467 7.50293 10.7467C7.85293 10.7467 8.12793 10.4533 8.12793 10.08V4.30667L9.55292 5.85332C9.67792 5.98665 9.84043 6.05332 10.0029 6.05332C10.1654 6.05332 10.3154 5.98667 10.4404 5.86667C10.6904 5.61333 10.6904 5.18665 10.4529 4.91999L7.96542 2.2C7.85292 2.06667 7.69043 2 7.51543 2C7.35293 2 7.19043 2.06667 7.06543 2.2L4.57793 4.91999C4.34043 5.18665 4.34042 5.6 4.59042 5.86667C4.81542 6.12 5.21543 6.10665 5.45293 5.85332Z"/></svg>