<svg width="24" height="24" viewBox="0 0 24 24" fill="none" xmlns="http://www.w3.org/2000/svg">
<path fill-rule="evenodd" clip-rule="evenodd" d="M19.2548 11.4248C19.1464 12.0827 18.9215 12.7104 18.5976 13.2935C18.6371 13.4852 18.6575 13.6798 18.6575 13.8758C18.6575 14.4522 18.4904 15.003 18.1823 15.5021C18.0417 15.7299 18.0039 16.0004 17.9892 16.1867C17.9725 16.3979 17.978 16.6305 17.9934 16.8559C18.0132 17.1477 18.0516 17.4568 18.0941 17.7407C17.7743 17.6456 17.4174 17.5472 17.0793 17.4709C16.8302 17.4147 16.5772 17.3673 16.3491 17.3437C16.1478 17.3229 15.8687 17.3085 15.6229 17.388C15.0433 17.5753 14.406 17.6797 13.7348 17.6797C12.8731 17.6797 12.0846 17.5139 11.4032 17.2284C11.3106 17.2309 11.2176 17.2322 11.1242 17.2322C10.2738 17.2322 9.45354 17.1263 8.68213 16.9298C9.84791 18.2228 11.7251 19.0223 13.7348 19.0223C14.5392 19.0223 15.3107 18.8981 16.0208 18.6703L16.0206 18.6705C16.0207 18.6708 16.0234 18.6708 16.0292 18.6706C16.0491 18.67 16.1052 18.6682 16.2112 18.6792C16.3649 18.695 16.5605 18.7302 16.7839 18.7806C17.2287 18.8809 17.7276 19.0287 18.1153 19.1518C18.8817 19.3951 19.6253 18.7258 19.4882 17.9476C19.4249 17.5882 19.3588 17.1478 19.3328 16.765C19.3198 16.5726 19.3181 16.4122 19.3276 16.2924C19.3328 16.2267 19.3401 16.1911 19.3431 16.1773C19.7603 15.4903 20.0001 14.7082 20.0001 13.8758C20.0001 12.9719 19.7274 12.1421 19.2548 11.4248Z" fill="#333333"/>
<path fill-rule="evenodd" clip-rule="evenodd" d="M7.04913 7.6245C6.02954 8.40418 5.45573 9.43372 5.45573 10.5194C5.45573 11.0601 5.59658 11.5802 5.85969 12.0627C5.95054 12.2293 5.9771 12.4028 5.9867 12.5239C5.9971 12.6553 5.99199 12.7915 5.9803 12.9207C5.95689 13.1794 5.90085 13.4742 5.83294 13.7669C5.74242 14.1571 5.62272 14.5774 5.50472 14.9609C5.93426 14.8023 6.41811 14.6347 6.87349 14.5019C7.20202 14.406 7.53184 14.3234 7.82396 14.2772C8.0791 14.2369 8.43325 14.2006 8.73326 14.3044C9.45752 14.555 10.2671 14.6963 11.1243 14.6963C12.7407 14.6963 14.1793 14.1945 15.1995 13.4143C16.2191 12.6346 16.7929 11.6051 16.7929 10.5194C16.7929 9.43372 16.2191 8.40418 15.1995 7.6245C14.1793 6.84434 12.7407 6.34256 11.1243 6.34256C9.50789 6.34256 8.06933 6.84434 7.04913 7.6245ZM6.23359 6.55803C7.50796 5.58351 9.23933 5 11.1243 5C13.0093 5 14.7407 5.58351 16.015 6.55803C17.29 7.53302 18.1355 8.92755 18.1355 10.5194C18.1355 12.1113 17.29 13.5058 16.015 14.4808C14.7407 15.4553 13.0093 16.0388 11.1243 16.0388C10.1203 16.0388 9.16227 15.8734 8.2943 15.5732C8.30348 15.5763 8.30841 15.5778 8.3083 15.5785C8.30788 15.5812 8.23177 15.572 8.03364 15.6033C7.82137 15.6369 7.55268 15.7022 7.24949 15.7907C6.64563 15.9669 5.96861 16.2157 5.454 16.416C4.6223 16.7397 3.77444 15.9402 4.05462 15.0895C4.21384 14.6061 4.40216 13.9935 4.52512 13.4635C4.58701 13.1967 4.62781 12.9699 4.6432 12.7997C4.64967 12.7283 4.65055 12.6782 4.64928 12.6463C4.30614 11.9962 4.11318 11.2772 4.11318 10.5194C4.11318 8.92755 4.95859 7.53302 6.23359 6.55803ZM4.6465 12.6147C4.64656 12.6146 4.6469 12.6163 4.64734 12.6199C4.64666 12.6165 4.64644 12.6147 4.6465 12.6147Z" fill="#333333"/>
</svg>
