<svg width="24" height="24" viewBox="0 0 24 24" fill="none" xmlns="http://www.w3.org/2000/svg">
<path d="M18.7449 12.72C18.6249 12.42 18.3249 12.2 18.0049 12.2H15.4049V4.8C15.4049 4.36 14.9449 4 14.5049 4H9.50486C9.06486 4 8.60486 4.36 8.60486 4.8V12.2H6.00486C5.68486 12.2 5.38486 12.44 5.26486 12.72C5.14486 13.02 5.20486 13.38 5.42486 13.6L11.4249 19.74C11.5849 19.9 11.7849 19.98 12.0049 19.98C12.2249 19.98 12.4249 19.9 12.5849 19.74L18.5849 13.6C18.8049 13.38 18.8649 13.02 18.7449 12.72ZM12.0049 17.98L7.90486 13.8H9.50486C9.94486 13.8 10.2049 13.52 10.2049 13.08V5.6H13.8049V13.08C13.8049 13.52 14.0649 13.8 14.5049 13.8H16.1049L12.0049 17.98Z" fill="#4F4F4F"/>
</svg>
