<svg width="159" height="62" viewBox="0 0 159 62" fill="none" xmlns="http://www.w3.org/2000/svg">
<g filter="url(#filter0_d)">
<rect x="13" y="9" width="133" height="36" rx="4" fill="#1E8AC6"/>
<path d="M36.818 26.932C37.3873 27.0813 37.826 27.3613 38.134 27.772C38.4513 28.1827 38.61 28.696 38.61 29.312C38.61 30.18 38.3253 30.8473 37.756 31.314C37.1867 31.7713 36.3793 32 35.334 32H31.806C31.6287 32 31.484 31.9487 31.372 31.846C31.2693 31.7433 31.218 31.608 31.218 31.44V22.69C31.218 22.522 31.2693 22.3867 31.372 22.284C31.484 22.1813 31.6287 22.13 31.806 22.13H35.18C36.1973 22.13 36.986 22.354 37.546 22.802C38.106 23.25 38.386 23.8847 38.386 24.706C38.386 25.238 38.246 25.6953 37.966 26.078C37.6953 26.4607 37.3127 26.7453 36.818 26.932ZM32.352 26.512H35.012C35.7493 26.512 36.3047 26.3627 36.678 26.064C37.0607 25.7653 37.252 25.3313 37.252 24.762C37.252 23.642 36.5053 23.082 35.012 23.082H32.352V26.512ZM35.222 31.048C35.9967 31.048 36.566 30.908 36.93 30.628C37.3033 30.3387 37.49 29.8907 37.49 29.284C37.49 28.0707 36.734 27.464 35.222 27.464H32.352V31.048H35.222ZM43.8576 25.042C44.2496 25.014 44.4456 25.1727 44.4456 25.518C44.4456 25.6673 44.4036 25.7887 44.3196 25.882C44.2356 25.966 44.0909 26.0173 43.8856 26.036L43.4656 26.078C42.8403 26.134 42.3736 26.358 42.0656 26.75C41.7669 27.1327 41.6176 27.5853 41.6176 28.108V31.51C41.6176 31.6967 41.5663 31.8367 41.4636 31.93C41.3609 32.0233 41.2256 32.07 41.0576 32.07C40.8896 32.07 40.7496 32.0233 40.6376 31.93C40.5349 31.8273 40.4836 31.6873 40.4836 31.51V25.602C40.4836 25.4247 40.5396 25.2893 40.6516 25.196C40.7636 25.0933 40.8989 25.042 41.0576 25.042C41.2069 25.042 41.3329 25.0933 41.4356 25.196C41.5383 25.2893 41.5896 25.42 41.5896 25.588V26.372C41.7856 25.9613 42.0609 25.6487 42.4156 25.434C42.7796 25.2193 43.1949 25.0933 43.6616 25.056L43.8576 25.042ZM48.1104 32.098C47.4664 32.098 46.8971 31.9533 46.4024 31.664C45.9171 31.3747 45.5391 30.964 45.2684 30.432C45.0071 29.8907 44.8764 29.2653 44.8764 28.556C44.8764 27.8467 45.0071 27.226 45.2684 26.694C45.5391 26.1527 45.9171 25.7373 46.4024 25.448C46.8971 25.1587 47.4664 25.014 48.1104 25.014C48.7544 25.014 49.3238 25.1587 49.8184 25.448C50.3131 25.7373 50.6911 26.1527 50.9524 26.694C51.2231 27.226 51.3584 27.8467 51.3584 28.556C51.3584 29.2653 51.2231 29.8907 50.9524 30.432C50.6911 30.964 50.3131 31.3747 49.8184 31.664C49.3238 31.9533 48.7544 32.098 48.1104 32.098ZM48.1104 31.16C48.7824 31.16 49.2958 30.9407 49.6504 30.502C50.0144 30.054 50.1964 29.4053 50.1964 28.556C50.1964 27.7253 50.0144 27.086 49.6504 26.638C49.2864 26.1807 48.7731 25.952 48.1104 25.952C47.4478 25.952 46.9344 26.1807 46.5704 26.638C46.2064 27.086 46.0244 27.7253 46.0244 28.556C46.0244 29.396 46.2018 30.04 46.5564 30.488C46.9204 30.936 47.4384 31.16 48.1104 31.16ZM62.29 25.406C62.3833 25.182 62.5373 25.07 62.752 25.07C62.892 25.07 63.018 25.1167 63.13 25.21C63.242 25.3033 63.298 25.42 63.298 25.56C63.298 25.6253 63.284 25.6953 63.256 25.77L60.932 31.65C60.876 31.7713 60.792 31.8693 60.68 31.944C60.5773 32.0093 60.4607 32.042 60.33 32.042C60.2087 32.042 60.092 32.0093 59.98 31.944C59.8773 31.8693 59.798 31.7713 59.742 31.65L57.81 26.736L55.892 31.65C55.8453 31.7713 55.766 31.8693 55.654 31.944C55.542 32.0093 55.4207 32.042 55.29 32.042C55.1687 32.042 55.052 32.0093 54.94 31.944C54.828 31.8693 54.744 31.7713 54.688 31.65L52.364 25.784C52.336 25.7093 52.322 25.644 52.322 25.588C52.322 25.4387 52.3827 25.3127 52.504 25.21C52.6347 25.1073 52.7747 25.056 52.924 25.056C53.148 25.056 53.3067 25.168 53.4 25.392L55.318 30.558L57.292 25.434C57.348 25.3127 57.4227 25.2193 57.516 25.154C57.6187 25.0887 57.726 25.056 57.838 25.056C57.9593 25.056 58.0667 25.0887 58.16 25.154C58.2627 25.2193 58.3373 25.3127 58.384 25.434L60.358 30.544L62.29 25.406ZM66.9241 32.098C66.4948 32.098 66.0841 32.0467 65.6921 31.944C65.3095 31.8413 64.9688 31.6967 64.6701 31.51C64.5021 31.398 64.3808 31.2953 64.3061 31.202C64.2408 31.0993 64.2081 30.978 64.2081 30.838C64.2081 30.7167 64.2408 30.6187 64.3061 30.544C64.3808 30.46 64.4741 30.418 64.5861 30.418C64.6981 30.418 64.8615 30.488 65.0761 30.628C65.3561 30.796 65.6315 30.9313 65.9021 31.034C66.1821 31.1273 66.5275 31.174 66.9381 31.174C67.4421 31.174 67.8341 31.0853 68.1141 30.908C68.3941 30.7307 68.5341 30.474 68.5341 30.138C68.5341 29.9327 68.4828 29.7693 68.3801 29.648C68.2775 29.5173 68.1001 29.4053 67.8481 29.312C67.5961 29.2093 67.2275 29.1067 66.7421 29.004C65.9208 28.8267 65.3328 28.5887 64.9781 28.29C64.6235 27.9913 64.4461 27.5853 64.4461 27.072C64.4461 26.6707 64.5581 26.316 64.7821 26.008C65.0061 25.7 65.3141 25.4573 65.7061 25.28C66.1075 25.1027 66.5601 25.014 67.0641 25.014C67.4281 25.014 67.7781 25.0653 68.1141 25.168C68.4595 25.2613 68.7628 25.3967 69.0241 25.574C69.3415 25.798 69.5001 26.0313 69.5001 26.274C69.5001 26.3953 69.4628 26.498 69.3881 26.582C69.3135 26.666 69.2248 26.708 69.1221 26.708C69.0101 26.708 68.8421 26.6287 68.6181 26.47C68.3568 26.302 68.1095 26.1713 67.8761 26.078C67.6428 25.9847 67.3535 25.938 67.0081 25.938C66.5695 25.938 66.2148 26.036 65.9441 26.232C65.6828 26.428 65.5521 26.6893 65.5521 27.016C65.5521 27.2213 65.5988 27.3893 65.6921 27.52C65.7948 27.6413 65.9581 27.7533 66.1821 27.856C66.4155 27.9493 66.7468 28.0427 67.1761 28.136C67.8108 28.276 68.3008 28.43 68.6461 28.598C69.0008 28.766 69.2528 28.9713 69.4021 29.214C69.5515 29.4567 69.6261 29.7647 69.6261 30.138C69.6261 30.726 69.3788 31.202 68.8841 31.566C68.3895 31.9207 67.7361 32.098 66.9241 32.098ZM76.6327 30.418C76.7354 30.418 76.824 30.46 76.8987 30.544C76.9734 30.628 77.0107 30.7353 77.0107 30.866C77.0107 31.0993 76.8474 31.314 76.5207 31.51C76.1847 31.706 75.83 31.8553 75.4567 31.958C75.0834 32.0513 74.7194 32.098 74.3647 32.098C73.31 32.098 72.4747 31.7853 71.8587 31.16C71.252 30.5347 70.9487 29.6713 70.9487 28.57C70.9487 27.87 71.084 27.254 71.3547 26.722C71.6254 26.1807 72.0034 25.7607 72.4887 25.462C72.9834 25.1633 73.5434 25.014 74.1687 25.014C75.0554 25.014 75.76 25.3033 76.2827 25.882C76.8054 26.4607 77.0667 27.2447 77.0667 28.234C77.0667 28.4207 77.0294 28.556 76.9547 28.64C76.88 28.724 76.7587 28.766 76.5907 28.766H72.0827C72.1667 30.3713 72.9274 31.174 74.3647 31.174C74.7287 31.174 75.0414 31.1273 75.3027 31.034C75.564 30.9313 75.844 30.796 76.1427 30.628C76.3854 30.488 76.5487 30.418 76.6327 30.418ZM74.1827 25.896C73.5854 25.896 73.1047 26.0827 72.7407 26.456C72.386 26.8293 72.176 27.3567 72.1107 28.038H76.0727C76.054 27.3473 75.8814 26.82 75.5547 26.456C75.228 26.0827 74.7707 25.896 74.1827 25.896ZM90.1309 22.06C90.3082 22.06 90.4435 22.116 90.5369 22.228C90.6395 22.3307 90.6909 22.4707 90.6909 22.648V31.482C90.6909 31.6593 90.6395 31.804 90.5369 31.916C90.4435 32.0187 90.3082 32.07 90.1309 32.07C89.9535 32.07 89.8135 32.0187 89.7109 31.916C89.6082 31.804 89.5569 31.6593 89.5569 31.482V27.478H83.6489V31.482C83.6489 31.6593 83.5975 31.804 83.4949 31.916C83.3922 32.0187 83.2522 32.07 83.0749 32.07C82.8975 32.07 82.7575 32.0187 82.6549 31.916C82.5615 31.804 82.5149 31.6593 82.5149 31.482V22.648C82.5149 22.4707 82.5615 22.3307 82.6549 22.228C82.7575 22.116 82.8975 22.06 83.0749 22.06C83.2522 22.06 83.3922 22.116 83.4949 22.228C83.5975 22.3307 83.6489 22.4707 83.6489 22.648V26.498H89.5569V22.648C89.5569 22.4707 89.6082 22.3307 89.7109 22.228C89.8135 22.116 89.9535 22.06 90.1309 22.06ZM95.7843 32.098C95.1403 32.098 94.5709 31.9533 94.0763 31.664C93.5909 31.3747 93.2129 30.964 92.9423 30.432C92.6809 29.8907 92.5503 29.2653 92.5503 28.556C92.5503 27.8467 92.6809 27.226 92.9423 26.694C93.2129 26.1527 93.5909 25.7373 94.0763 25.448C94.5709 25.1587 95.1403 25.014 95.7843 25.014C96.4283 25.014 96.9976 25.1587 97.4923 25.448C97.9869 25.7373 98.3649 26.1527 98.6263 26.694C98.8969 27.226 99.0323 27.8467 99.0323 28.556C99.0323 29.2653 98.8969 29.8907 98.6263 30.432C98.3649 30.964 97.9869 31.3747 97.4923 31.664C96.9976 31.9533 96.4283 32.098 95.7843 32.098ZM95.7843 31.16C96.4563 31.16 96.9696 30.9407 97.3243 30.502C97.6883 30.054 97.8703 29.4053 97.8703 28.556C97.8703 27.7253 97.6883 27.086 97.3243 26.638C96.9603 26.1807 96.4469 25.952 95.7843 25.952C95.1216 25.952 94.6083 26.1807 94.2443 26.638C93.8803 27.086 93.6983 27.7253 93.6983 28.556C93.6983 29.396 93.8756 30.04 94.2303 30.488C94.5943 30.936 95.1123 31.16 95.7843 31.16ZM104.152 25.014C104.749 25.014 105.277 25.1587 105.734 25.448C106.191 25.7373 106.546 26.148 106.798 26.68C107.05 27.212 107.176 27.828 107.176 28.528C107.176 29.2373 107.05 29.8627 106.798 30.404C106.546 30.936 106.191 31.3513 105.734 31.65C105.277 31.9487 104.749 32.098 104.152 32.098C103.62 32.098 103.153 31.9813 102.752 31.748C102.36 31.5147 102.061 31.1833 101.856 30.754V31.51C101.856 31.678 101.805 31.8133 101.702 31.916C101.609 32.0187 101.473 32.07 101.296 32.07C101.119 32.07 100.979 32.0187 100.876 31.916C100.773 31.8133 100.722 31.678 100.722 31.51V22.606C100.722 22.4473 100.773 22.3167 100.876 22.214C100.979 22.1113 101.119 22.06 101.296 22.06C101.473 22.06 101.609 22.1113 101.702 22.214C101.805 22.3073 101.856 22.438 101.856 22.606V26.358C102.061 25.9287 102.36 25.5973 102.752 25.364C103.153 25.1307 103.62 25.014 104.152 25.014ZM103.928 31.16C104.591 31.16 105.104 30.9313 105.468 30.474C105.832 30.0073 106.014 29.3587 106.014 28.528C106.014 27.716 105.832 27.086 105.468 26.638C105.104 26.19 104.591 25.966 103.928 25.966C103.265 25.966 102.752 26.19 102.388 26.638C102.033 27.086 101.856 27.7253 101.856 28.556C101.856 29.3867 102.033 30.0307 102.388 30.488C102.752 30.936 103.265 31.16 103.928 31.16ZM112.3 25.014C112.898 25.014 113.425 25.1587 113.882 25.448C114.34 25.7373 114.694 26.148 114.946 26.68C115.198 27.212 115.324 27.828 115.324 28.528C115.324 29.2373 115.198 29.8627 114.946 30.404C114.694 30.936 114.34 31.3513 113.882 31.65C113.425 31.9487 112.898 32.098 112.3 32.098C111.768 32.098 111.302 31.9813 110.9 31.748C110.508 31.5147 110.21 31.1833 110.004 30.754V31.51C110.004 31.678 109.953 31.8133 109.85 31.916C109.757 32.0187 109.622 32.07 109.444 32.07C109.267 32.07 109.127 32.0187 109.024 31.916C108.922 31.8133 108.87 31.678 108.87 31.51V22.606C108.87 22.4473 108.922 22.3167 109.024 22.214C109.127 22.1113 109.267 22.06 109.444 22.06C109.622 22.06 109.757 22.1113 109.85 22.214C109.953 22.3073 110.004 22.438 110.004 22.606V26.358C110.21 25.9287 110.508 25.5973 110.9 25.364C111.302 25.1307 111.768 25.014 112.3 25.014ZM112.076 31.16C112.739 31.16 113.252 30.9313 113.616 30.474C113.98 30.0073 114.162 29.3587 114.162 28.528C114.162 27.716 113.98 27.086 113.616 26.638C113.252 26.19 112.739 25.966 112.076 25.966C111.414 25.966 110.9 26.19 110.536 26.638C110.182 27.086 110.004 27.7253 110.004 28.556C110.004 29.3867 110.182 30.0307 110.536 30.488C110.9 30.936 111.414 31.16 112.076 31.16ZM121.851 25.392C121.953 25.168 122.117 25.056 122.341 25.056C122.481 25.056 122.607 25.1027 122.719 25.196C122.831 25.2893 122.887 25.406 122.887 25.546C122.887 25.63 122.868 25.7047 122.831 25.77L118.897 34.254C118.85 34.3567 118.78 34.436 118.687 34.492C118.603 34.548 118.514 34.576 118.421 34.576C118.281 34.576 118.155 34.5293 118.043 34.436C117.94 34.352 117.889 34.24 117.889 34.1C117.889 34.0253 117.907 33.9507 117.945 33.876L118.925 31.762L116.153 25.77C116.115 25.7047 116.097 25.6347 116.097 25.56C116.097 25.42 116.157 25.2987 116.279 25.196C116.409 25.0933 116.549 25.042 116.699 25.042C116.792 25.042 116.881 25.07 116.965 25.126C117.058 25.182 117.128 25.2613 117.175 25.364L119.513 30.614L121.851 25.392Z" fill="white"/>
</g>
<defs>
<filter id="filter0_d" x="0" y="0" width="159" height="62" filterUnits="userSpaceOnUse" color-interpolation-filters="sRGB">
<feFlood flood-opacity="0" result="BackgroundImageFix"/>
<feColorMatrix in="SourceAlpha" type="matrix" values="0 0 0 0 0 0 0 0 0 0 0 0 0 0 0 0 0 0 127 0" result="hardAlpha"/>
<feMorphology radius="1" operator="dilate" in="SourceAlpha" result="effect1_dropShadow"/>
<feOffset dy="4"/>
<feGaussianBlur stdDeviation="6"/>
<feColorMatrix type="matrix" values="0 0 0 0 0 0 0 0 0 0 0 0 0 0 0 0 0 0 0.2 0"/>
<feBlend mode="normal" in2="BackgroundImageFix" result="effect1_dropShadow"/>
<feBlend mode="normal" in="SourceGraphic" in2="effect1_dropShadow" result="shape"/>
</filter>
</defs>
</svg>
