<svg width="107" height="107" viewBox="0 0 107 107" fill="none" xmlns="http://www.w3.org/2000/svg">
<path d="M89.1663 17.8333H26.7497C21.8321 17.8333 17.833 21.8325 17.833 26.75V49.0417H26.7497V35.6667L55.283 57.0667C56.055 57.6448 56.9935 57.9572 57.958 57.9572C58.9225 57.9572 59.861 57.6448 60.633 57.0667L89.1663 35.6667V75.7917H53.4997V84.7083H89.1663C94.0839 84.7083 98.083 80.7092 98.083 75.7917V26.75C98.083 21.8325 94.0839 17.8333 89.1663 17.8333ZM57.958 47.9271L29.7189 26.75H86.1971L57.958 47.9271Z" fill="#9589DE"/>
<path d="M8.91699 53.5H40.1253V62.4167H8.91699V53.5ZM17.8337 66.875H44.5837V75.7917H17.8337V66.875ZM31.2087 80.25H49.042V89.1667H31.2087V80.25Z" fill="#9589DE"/>
</svg>
