<svg xmlns="http://www.w3.org/2000/svg" width="11" height="11" fill="none" viewBox="0 0 11 11"><path fill="#1E8AC6" fill-rule="evenodd" d="M9.7691 3.11308C9.67495 3.21351 9.62788 3.26372 9.5842 3.30075C9.2111 3.6171 8.6639 3.6171 8.2908 3.30075C8.24712 3.26372 8.20005 3.21351 8.1059 3.11309L7.1684 2.11308C7.08455 2.02365 7.04263 1.97893 7.01081 1.93688C6.74071 1.57994 6.74071 1.08698 7.01081 0.730038C7.04263 0.687988 7.08455 0.643269 7.1684 0.553833C7.26255 0.453407 7.30962 0.403194 7.3533 0.366165C7.7264 0.04982 8.2736 0.04982 8.6467 0.366165C8.69038 0.403194 8.73745 0.453406 8.8316 0.553832L9.7691 1.55383C9.85295 1.64327 9.89487 1.68799 9.92669 1.73004C10.1968 2.08698 10.1968 2.57994 9.92669 2.93688C9.89487 2.97893 9.85295 3.02365 9.7691 3.11308ZM2.24431 10.3335C1.5475 10.3335 1.19909 10.3335 0.948152 10.1674C0.836127 10.0933 0.740186 9.99733 0.666056 9.88531C0.5 9.63437 0.5 9.28596 0.5 8.58915V8.42248C0.5 8.06684 0.5 7.88901 0.558267 7.72588C0.565786 7.70483 0.574007 7.68404 0.582919 7.66354C0.651985 7.50467 0.773606 7.37495 1.01685 7.11549L4.48194 3.41939C5.04227 2.8217 5.32244 2.52285 5.66896 2.47259C5.76416 2.45879 5.86084 2.45879 5.95604 2.47259C6.30256 2.52285 6.58273 2.8217 7.14306 3.41939C7.6414 3.95095 7.89057 4.21673 7.93298 4.53451C7.9447 4.62231 7.9447 4.71128 7.93298 4.79908C7.89057 5.11685 7.6414 5.38263 7.14306 5.91419L3.51685 9.78215C3.29991 10.0136 3.19144 10.1293 3.05787 10.2046C2.99711 10.2388 2.93293 10.2666 2.86638 10.2875C2.7201 10.3335 2.5615 10.3335 2.24431 10.3335Z" clip-rule="evenodd"/></svg>